<mxfile host="65bd71144e">
    <diagram name="Page-1" id="qwiDG9JoKth5zl5hlbFU">
        <mxGraphModel dx="1086" dy="527" grid="1" gridSize="10" guides="1" tooltips="1" connect="1" arrows="1" fold="1" page="1" pageScale="1" pageWidth="850" pageHeight="1100" math="0" shadow="0">
            <root>
                <mxCell id="0"/>
                <mxCell id="1" parent="0"/>
                <mxCell id="0lfrLGPPwESNFFXhK_oL-1" value="Property" style="swimlane;childLayout=stackLayout;horizontal=1;startSize=50;horizontalStack=0;rounded=1;fontSize=14;fontStyle=0;strokeWidth=2;resizeParent=0;resizeLast=1;shadow=0;dashed=0;align=center;arcSize=4;whiteSpace=wrap;html=1;" parent="1" vertex="1">
                    <mxGeometry x="125" y="80" width="160" height="200" as="geometry"/>
                </mxCell>
                <mxCell id="0lfrLGPPwESNFFXhK_oL-2" value="&lt;div&gt;Id&lt;/div&gt;Property Name&lt;div&gt;&lt;span style=&quot;background-color: transparent;&quot;&gt;Address&lt;/span&gt;&lt;/div&gt;&lt;div&gt;&lt;span style=&quot;background-color: transparent;&quot;&gt;City&lt;/span&gt;&lt;/div&gt;&lt;div&gt;&lt;span style=&quot;background-color: transparent;&quot;&gt;Phone&lt;br&gt;&lt;/span&gt;&lt;span style=&quot;background-color: transparent;&quot;&gt;Fax&lt;/span&gt;&lt;/div&gt;&lt;div&gt;&lt;span style=&quot;background-color: transparent;&quot;&gt;Website&lt;/span&gt;&lt;/div&gt;&lt;div&gt;&lt;span style=&quot;background-color: transparent;&quot;&gt;Email&lt;/span&gt;&lt;/div&gt;&lt;div&gt;&lt;span style=&quot;background-color: transparent;&quot;&gt;Logo&lt;/span&gt;&lt;/div&gt;" style="align=left;strokeColor=none;fillColor=none;spacingLeft=4;spacingRight=4;fontSize=12;verticalAlign=top;resizable=0;rotatable=0;part=1;html=1;whiteSpace=wrap;" parent="0lfrLGPPwESNFFXhK_oL-1" vertex="1">
                    <mxGeometry y="50" width="160" height="150" as="geometry"/>
                </mxCell>
                <mxCell id="6" value="Department" style="swimlane;childLayout=stackLayout;horizontal=1;startSize=50;horizontalStack=0;rounded=1;fontSize=14;fontStyle=0;strokeWidth=2;resizeParent=0;resizeLast=1;shadow=0;dashed=0;align=center;arcSize=4;whiteSpace=wrap;html=1;" parent="1" vertex="1">
                    <mxGeometry x="355" y="80" width="160" height="160" as="geometry"/>
                </mxCell>
                <mxCell id="7" value="&lt;div&gt;Id&lt;/div&gt;Code&lt;div&gt;&lt;span style=&quot;background-color: transparent;&quot;&gt;Name&lt;/span&gt;&lt;/div&gt;&lt;div&gt;&lt;span style=&quot;background-color: transparent;&quot;&gt;Remark&lt;/span&gt;&lt;/div&gt;&lt;div&gt;&lt;span style=&quot;background-color: transparent;&quot;&gt;Status&lt;/span&gt;&lt;/div&gt;&lt;div&gt;&lt;span style=&quot;background-color: transparent;&quot;&gt;IsActive&lt;/span&gt;&lt;/div&gt;" style="align=left;strokeColor=none;fillColor=none;spacingLeft=4;fontSize=12;verticalAlign=top;resizable=0;rotatable=0;part=1;html=1;" parent="6" vertex="1">
                    <mxGeometry y="50" width="160" height="110" as="geometry"/>
                </mxCell>
                <mxCell id="8" value="Facility" style="swimlane;childLayout=stackLayout;horizontal=1;startSize=50;horizontalStack=0;rounded=1;fontSize=14;fontStyle=0;strokeWidth=2;resizeParent=0;resizeLast=1;shadow=0;dashed=0;align=center;arcSize=4;whiteSpace=wrap;html=1;" parent="1" vertex="1">
                    <mxGeometry x="565" y="80" width="160" height="130" as="geometry"/>
                </mxCell>
                <mxCell id="9" value="Id&lt;div&gt;Name&lt;/div&gt;&lt;div&gt;Icon&lt;/div&gt;&lt;div&gt;IsActive&lt;/div&gt;" style="align=left;strokeColor=none;fillColor=none;spacingLeft=4;fontSize=12;verticalAlign=top;resizable=0;rotatable=0;part=1;html=1;" parent="8" vertex="1">
                    <mxGeometry y="50" width="160" height="80" as="geometry"/>
                </mxCell>
                <mxCell id="10" value="Room Type" style="swimlane;childLayout=stackLayout;horizontal=1;startSize=50;horizontalStack=0;rounded=1;fontSize=14;fontStyle=0;strokeWidth=2;resizeParent=0;resizeLast=1;shadow=0;dashed=0;align=center;arcSize=4;whiteSpace=wrap;html=1;" parent="1" vertex="1">
                    <mxGeometry x="125" y="320" width="160" height="150" as="geometry"/>
                </mxCell>
                <mxCell id="11" value="Id&lt;div&gt;Name&lt;/div&gt;&lt;div&gt;Description&lt;/div&gt;&lt;div&gt;DefaultPax&lt;/div&gt;&lt;div&gt;IsActive&lt;/div&gt;" style="align=left;strokeColor=none;fillColor=none;spacingLeft=4;fontSize=12;verticalAlign=top;resizable=0;rotatable=0;part=1;html=1;" parent="10" vertex="1">
                    <mxGeometry y="50" width="160" height="100" as="geometry"/>
                </mxCell>
                <mxCell id="12" value="Bed Type" style="swimlane;childLayout=stackLayout;horizontal=1;startSize=50;horizontalStack=0;rounded=1;fontSize=14;fontStyle=0;strokeWidth=2;resizeParent=0;resizeLast=1;shadow=0;dashed=0;align=center;arcSize=4;whiteSpace=wrap;html=1;" parent="1" vertex="1">
                    <mxGeometry x="355" y="320" width="160" height="150" as="geometry"/>
                </mxCell>
                <mxCell id="13" value="Id&lt;div&gt;Name&lt;/div&gt;&lt;div&gt;Description&lt;/div&gt;&lt;div&gt;IsActive&lt;/div&gt;" style="align=left;strokeColor=none;fillColor=none;spacingLeft=4;fontSize=12;verticalAlign=top;resizable=0;rotatable=0;part=1;html=1;" parent="12" vertex="1">
                    <mxGeometry y="50" width="160" height="100" as="geometry"/>
                </mxCell>
                <mxCell id="14" value="Room Status Type" style="swimlane;childLayout=stackLayout;horizontal=1;startSize=50;horizontalStack=0;rounded=1;fontSize=14;fontStyle=0;strokeWidth=2;resizeParent=0;resizeLast=1;shadow=0;dashed=0;align=center;arcSize=4;whiteSpace=wrap;html=1;" parent="1" vertex="1">
                    <mxGeometry x="565" y="320" width="160" height="150" as="geometry"/>
                </mxCell>
                <mxCell id="15" value="Id&lt;div&gt;Code&lt;br&gt;Description&lt;/div&gt;&lt;div&gt;Icon&lt;br&gt;IsActive&lt;/div&gt;" style="align=left;strokeColor=none;fillColor=none;spacingLeft=4;fontSize=12;verticalAlign=top;resizable=0;rotatable=0;part=1;html=1;" parent="14" vertex="1">
                    <mxGeometry y="50" width="160" height="100" as="geometry"/>
                </mxCell>
                <mxCell id="16" value="Room" style="swimlane;childLayout=stackLayout;horizontal=1;startSize=50;horizontalStack=0;rounded=1;fontSize=14;fontStyle=0;strokeWidth=2;resizeParent=0;resizeLast=1;shadow=0;dashed=0;align=center;arcSize=4;whiteSpace=wrap;html=1;" parent="1" vertex="1">
                    <mxGeometry x="125" y="510" width="160" height="200" as="geometry"/>
                </mxCell>
                <mxCell id="17" value="&lt;div&gt;Id&lt;/div&gt;Room Number&lt;div&gt;Floor Number&lt;/div&gt;&lt;div&gt;Room Type&lt;/div&gt;&lt;div&gt;Bed Type&lt;/div&gt;&lt;div&gt;Remarks&lt;/div&gt;&lt;div&gt;Facilities&lt;/div&gt;&lt;div&gt;Max Adult&lt;/div&gt;&lt;div&gt;Max Children&lt;/div&gt;" style="align=left;strokeColor=none;fillColor=none;spacingLeft=4;fontSize=12;verticalAlign=top;resizable=0;rotatable=0;part=1;html=1;" parent="16" vertex="1">
                    <mxGeometry y="50" width="160" height="150" as="geometry"/>
                </mxCell>
            </root>
        </mxGraphModel>
    </diagram>
</mxfile>